# xmcd
#
# Track frame offsets:
#	150
#	15497
#	34318
#	53700
#	73406
#	90963
#	107118
#	125211
#	145150
#	158357
#	176444
#	193567
#
# Disc length: 2792 seconds
#
# Revision: 1
# Processed by: cddbd v1.5.2PL0 Copyright (c) Steve Scherf et al.
# Submitted via: audiograbber 1.83.01
#
DISCID=9d0ae60c
DTITLE=Joseph Arthur - The Graduation Ceremony
DYEAR=2011
DGENRE=Alternative
TTITLE0=Out on a Limb
TTITLE1=Horses
TTITLE2=Almost Blue
TTITLE3=Someone to Love
TTITLE4=Watch Our Shadows Run
TTITLE5=This is Still My World
TTITLE6=Over the Sun
TTITLE7=Face in the Crowd
TTITLE8=Midwest
TTITLE9=Gypsy Faded
TTITLE10=Call
TTITLE11=Love Never Asks You to Lie
EXTD=
EXTT0=
EXTT1=
EXTT2=
EXTT3=
EXTT4=
EXTT5=
EXTT6=
EXTT7=
EXTT8=
EXTT9=
EXTT10=
EXTT11=
PLAYORDER=
